<svg height="600pt" preserveAspectRatio="xMidYMid meet" viewBox="0 0 600 600" width="600pt" xmlns="http://www.w3.org/2000/svg"><g transform="matrix(.1 0 0 -.1 0 600)"><path d="m3170 5962c-13-2-35-12-47-22-18-14-33-16-65-12-60 9-255 8-363-1-49-4-121-10-160-13-38-3-72-9-75-14s-24-12-45-16c-55-8-212-50-309-81-330-106-689-300-1006-544-159-123-173-135-167-147 4-5-2-17-13-27s-20-15-20-10c0 4 8 14 18 21 9 7 12 14 6 14s-61-48-124-107c-62-59-118-108-125-108-16 0-135-149-135-167 0-8-11-29-23-48-126-187-327-608-360-755-3-11-3-2-1 21 3 40 35 144 71 234 10 25 53 111 96 192 42 82 77 153 77 160 0 6 3 8 7 5 3-4 17 21 31 56 59 147 258 392 452 557 36 30 67 57 70 61 23 26 359 259 374 259 2 0 42 22 88 48 89 51 89 51 275 136 122 56 218 94 368 146 88 31 90 39 4 14-362-106-784-332-1114-596-128-103-313-294-412-425-83-112-214-323-252-405-85-188-108-245-147-366-25-75-49-157-54-182s-12-54-14-65c-15-63-45-228-50-275-3-30-8-80-13-110-10-78-10-425 1-550 14-157 14-165 16-170 1-3 2-13 1-22-1-10 4-18 11-18 9 0 9-3-2-10-8-5-10-10-4-10s11-6 11-12c0-7 4-35 8-63 5-27 9-57 10-65s5-22 8-30 15-58 27-110c25-105 123-409 145-449 8-14 38-78 68-141 96-206 289-509 400-628 123-130 149-156 232-229 97-84 149-126 206-170 21-16 61-49 90-74 54-46 138-96 175-103 11-2 48-18 84-35 35-17 66-31 69-31 21 1-142 89-174 94-15 2-95 51-125 77-30 25-11 15 48-24 24-16 46-27 49-24 6 6-194 140-215 143-25 5-242 192-242 210 0 4 8-1 18-12 19-20 105-95 180-158 24-20 48-33 54-30 5 3-10 20-33 37-52 40-142 128-171 170-21 30-19 29 30-11 28-24 54-48 58-53 3-5 58-51 123-103 191-153 449-315 482-304 6 2-26 26-72 53-230 136-435 285-573 419-47 45-48 47-11 21 22-16 65-49 95-74s61-51 70-58c8-6 46-37 85-68 38-31 82-64 97-73s28-20 28-24 4-8 9-8c4 0 41-22 82-49s112-68 159-92c88-45 102-56 94-74-3-5 2-1 10 9 15 19 16 19 16-7 0-15 3-26 8-25 4 0 25-7 47-16 128-56 314-135 340-144 17-6 73-26 125-45s129-42 170-52c75-18 99-29 87-41-6-6-80 5-206 32-25 5-32 4-27-4 4-7 17-12 29-12 15 0 18-3 9-8-14-10 19-21 140-47 53-11 75-21 72-29-6-17-176 27-329 84-112 42-395 174-395 185 0 3 9 1 20-5 14-7 20-7 20 0 0 5-6 10-12 10-7 0-25 6-40 14s-28 11-30 6c-2-4-55 18-118 49-195 97-207 93-22-6 330-178 579-283 807-339 119-29 129-31 220-39 33-3 66-8 73-10 6-2 12 0 12 5 0 12-31 19-99 22-33 2-56 8-59 16-2 8 6 11 30 8 18-2 65-8 103-11 39-4 77-9 85-10 8-2 25-4 38-4 15-1 21-5 16-12-5-9 35-10 157-6 361 13 658 77 1007 216 170 68 391 184 487 254 50 37 101 75 114 85 65 46 197 159 171 146-8-4-34-22-57-41-23-18-44-33-48-33-11 0 88 80 100 81 5 1 17 2 25 3 8 0 30 23 47 50 18 26 33 42 33 35 0-8 33 20 74 61 40 41 116 116 167 166 104 100 149 159 153 198 3 25 88 155 176 271 25 33 63 87 84 120 22 33 44 67 49 75s-17-12-49-45c-58-60-125-153-179-250-51-92-136-215-196-280-66-73-76-76-25-6 87 120 182 270 166 261-10-5-51-51-91-102-99-126-146-174-87-88 63 91 94 137 188 280 75 114 78 120 35 75-51-55-50-48 5 35 48 72 93 150 87 150-5 0-65-70-137-160-128-160-253-309-281-335-29-27-28-24 10 25 79 104 112 152 108 156-2 3-19-12-36-32-44-50-49-37-7 17 44 55 36 67-9 14-22-26-34-34-35-24 0 9 9 24 21 35 26 23 83 94 76 94s-6 1-152-156c-145-156-358-370-440-443-63-57-256-202-315-239-74-45-280-144-305-146-14 0-25-4-25-8 0-3-8-5-17-4-26 4-107-25-94-34 7-4-9-14-36-23-26-9-82-28-123-43-165-58-333-98-518-124-43-6-87-12-98-14-110-21-276-22-369-3-68 14-66 6-52 152 4 39 10 99 13 135 8 86 12 116 23 170 5 25 10 70 12 100 1 30 6 65 10 77 5 12 11 75 14 140s7 170 10 233 8 133 11 155 7 168 8 325 5 291 9 296c3 6 7 30 8 55 1 24 4 47 6 51 2 3 47-10 101-29 88-32 130-45 187-58 11-3 47-11 80-20 33-8 94-19 135-25s86-13 100-16c46-8 214-18 305-18 88 1 274 12 285 19 3 1 28 6 55 9 99 14 321 65 395 92 41 14 127 51 190 81 63 31 180 82 258 114 124 50 146 57 158 44 40-39 202 65 278 179 23 35 63 74 109 107 89 64 228 203 289 289 64 90 155 249 129 226-12-11-21-15-21-11 0 12 46 71 131 165 88 99 101 119 88 141-7 14-17 12-78-17-38-18-104-61-148-96-43-35-118-92-168-126-49-35-139-101-200-148-127-98-228-150-535-274-113-45-233-95-268-111s-65-29-67-29-106-49-230-110c-125-60-229-110-230-110-2 0-59-27-128-60-122-57-304-118-484-161-196-47-436-17-613 77-114 61-103 29-106 313-1 136 3 272 8 302 8 52 11 197 4 269-3 31 10 53 124 205 70 94 153 210 184 258 62 97 176 313 176 334 0 22-29 27-49 9-12-11-21-13-25-7-18 28-204-96-403-268-18-16-33-25-33-20 0 4-3 14-6 22-3 10 25 34 93 79 54 36 108 70 121 77 23 12 29 35 12 46-6 4-57-20-113-52s-107-59-112-61c-10-2-16 129-18 395-1 50-3 90-6 88-4-2-7 20-8 48-4 105-25 398-29 395-1-2-5-21-8-43-4-23-8-50-10-62-20-101-24-131-25-180-1-18-4-33-8-33-23 0-22 680 1 935 9 92 17 189 21 249 3 32 6 60 8 62 13 13 263 36 403 37 91 0 283-10 319-17 11-2 45-7 75-11 87-11 231-42 330-71 58-16 101-23 118-19 21 5 24 8 12 15-18 10-175 61-262 85-32 8-58 18-58 20 0 9 70-6 192-41 67-19 133-33 147-33 21 1 22 2 6 6-11 3-78 23-150 44-131 39-245 63-365 75-36 3-67 8-70 10-14 7-270 18-415 17-88 0-154 1-147 4 6 3 10 9 7 14-8 12 41 23 110 23 64 0 216-11 250-18 11-2 45-7 75-10 30-4 73-10 95-13 41-6 50-7 175-17 41-4 82-9 90-11s35-7 60-10c90-12 272-72 320-106 46-32 240-95 240-78 0 5-4 9-10 9-13 0-160 91-182 113-26 25-4 21 77-13 80-34 86-36 59-14-18 15-18 15 0 10 34-11-3 24-74 69-124 80-275 133-516 184-198 42-308 55-374 43zm-614-139c-10-11-116-31-116-22 0 4 26 11 58 17 31 5 59 10 61 11 2 0 1-2-3-6zm57 0c-7-2-21-2-30 0-10 3-4 5 12 5 17 0 24-2 18-5zm-183-22c0-4-28-14-62-21-168-32-490-136-611-197-27-13-51-22-54-19s19 17 48 31c39 18 46 24 24 20l-30-5 25 15c30 17 44 19 34 4-8-14 6-9 146 43 58 22 119 43 135 48 96 28 265 71 295 76 19 3 37 8 39 10 7 6 11 5 11-5zm90-39c0-4-8-8-17-8-10 0-45-4-78-8s-58-5-55-2c3 2 28 8 55 11 28 4 52 9 54 11 8 7 41 4 41-4zm37 2c-3-3-12-4-19-1-8 3-5 6 6 6 11 1 17-2 13-5zm1116-1c-7-2-19-2-25 0-7 3-2 5 12 5s19-2 13-5zm-1326-29c-3-3-12-4-19-1-8 3-5 6 6 6 11 1 17-2 13-5zm1132-29c3-4-14-4-39-1-25 2-56 5-70 6-17 0-21 3-12 9 13 8 109-3 121-14zm541 15c8-5 11-10 5-10-5 0-17 5-25 10s-10 10-5 10c6 0 17-5 25-10zm-1804-21c-33-11-61-17-63-15-6 5 86 34 107 34 8 0-12-9-44-19zm359 12c-2-4-18-7-37-8-29-1-30 0-8 6 31 9 50 10 45 2zm1496-18c13-15 12-15-8-4-24 12-29 21-14 21 5 0 15-7 22-17zm-1942-17c-2-2-69-29-149-61-189-75-359-161-550-278-85-52-159-92-164-89-13 7 56 62 72 57 7-3 43 15 80 39 165 107 363 206 572 287 113 44 151 56 139 45zm418-33c-37-119-40-137-29-141 7-2 10-8 7-12-11-18-45-189-51-256-3-38-8-80-11-94s-8-223-10-465c-3-242-5-465-5-495-1-68 9-231 17-285 4-22 8-74 9-116 2-42 7-82 10-88 4-6 1-11-7-11-7 0-14-6-14-12 0-7-3-44-7-83-4-38-9-94-12-123-4-43-14-65-51-115-147-201-201-443-144-650 24-89 47-138 101-217l38-55 6-305c3-168 8-343 10-390 8-161 18-325 21-360 7-76 18-228 20-290 3-91 17-362 19-374 1-6 6-18 11-26 10-17 11-23 19-213l6-137-28 6c-81 18-116 30-213 69-59 24-147 64-196 88-48 25-124 57-168 72-174 60-379 178-404 231-5 12-62 61-125 109-191 143-253 198-377 336-41 45-79 87-85 93s-51 65-101 131c-166 221-286 446-368 688-24 70-42 127-40 127 3 0 0 11-5 25s-12 36-15 48c-2 12-13 60-24 107-10 47-22 101-25 120s-8 44-10 55c-2 12-7 48-11 80-4 33-9 68-11 78-8 43-17 252-16 358 0 63 8 156 16 205s18 112 21 139c3 28 7 61 10 75 6 28 35 181 42 219 21 120 123 423 178 530 166 328 481 664 850 907 207 136 537 291 701 329 10 2 64 16 119 31 87 23 304 72 329 73 4 1 6-7 3-16zm-457-47c0-2-21-11-47-20-27-10-57-22-68-27-11-4-42-17-70-28-57-22-300-139-360-173-22-13-67-39-100-57-33-19-87-53-120-75-73-51-99-65-65-37 63 54 290 189 439 263 167 82 391 170 391 154zm-470-75c-41-21-105-56-143-79-37-23-69-42-72-42-11 0-248-165-325-227-96-76-319-295-402-393-30-36-90-112-133-170-42-58-80-107-83-110-6-6 59 111 70 125 4 6 42 56 84 112s105 132 140 169c63 65 76 82 52 68-7-4 7 15 32 42s53 49 62 49 32 14 50 31 54 48 80 68c26 21 45 43 41 49-3 6-1 7 6 3 6-4 32 8 59 27 56 42 230 157 236 157 2 0 35 19 72 42 73 44 222 117 239 117 6 0-24-17-65-38zm-415-211c-10-11-23-20-29-20s0 9 14 20c32 25 38 25 15 0zm-196-150c-30-27-58-49-63-50-10 0 23 32 75 73 53 42 48 32-12-23zm161 36c0-2-8-10-17-17-16-13-17-12-4 4s21 21 21 13zm-261-242c-134-136-203-191-122-99 75 87 210 212 232 214 2 1-48-51-110-115zm-55-127c-304-338-500-773-579-1288-25-159-36-423-23-554 10-107 20-182 42-325 8-52 17-111 20-130 44-304 55-348 124-510 73-171 177-340 370-603 51-70 102-145 115-166 96-170 623-568 957-723 114-54 221-108 200-103-57 15-246 100-357 160-65 36-122 65-128 65-5 0 18-16 53-34 35-19 68-39 75-44s46-27 87-49 91-50 110-61c30-17 147-57 199-67 31-6 146-47 171-61l25-14-30 6c-16 3-43 10-58 14-53 17-17-9 43-31 33-12 60-24 60-26 0-3-6-3-12 0-44 16-60 18-54 8 11-17 66-37 153-56 75-17 117-35 79-35-44 0-168 36-241 70-204 96-265 124-335 152-132 53-217 101-358 201-75 54-162 112-192 129-137 78-192 125-370 314-164 175-292 338-414 529-76 118-212 372-190 354 10-8 14-8 14-1 0 6-5 14-11 18-6 3-8 18-5 33 5 21 4 23-5 11s-10-11-6 8c5 22-21 118-29 109-2-2 3-23 11-46 9-26 11-49 6-58-6-11-16 9-34 68-49 158-96 339-112 427-2 15-9 52-15 82-47 243-58 607-25 855 21 153 101 474 125 499 5 5 2-13-6-40-14-47-47-187-58-249-3-16-8-41-11-55-2-13-7-42-10-65-3-22-7-56-10-75-16-124-27-307-16-290 5 8 12 53 16 100 3 47 7 99 9 115 2 17 7 59 11 95 12 107 12 111 55 315 5 22 22 78 38 125 17 47 30 103 30 125-1 24 8 54 21 75 11 19 21 31 21 26s31 51 68 125c75 148 150 270 224 369 53 69 186 220 195 220 3 0-12-19-33-43zm-244-237c-6-11-13-20-16-20-2 0 0 9 6 20s13 20 16 20c2 0 0-9-6-20zm-58-39c-9-16-18-28-21-26-4 5 27 55 34 55 2 0-4-13-13-29zm-201-338c-11-21-20-35-21-31 0 12 33 78 38 74 2-2-6-21-17-43zm-61-103c-20-37-71-214-65-228 2-7 0-10-5-7-6 3-10 0-10-9 0-8-3-22-7-32-4-11-3-15 4-11 7 5 6-15-3-55-23-101-29-96-10 8 3 16-1 9-10-16-8-25-13-57-11-72s0-25-4-23c-7 5-25-80-35-160-2-22-7-53-9-70-15-99-20-194-18-390 2-259 2-253 14-260 5-4 9-15 9-26 0-14 4-18 12-13 9 5 9 2-1-9-7-9-10-17-5-17 4 0 3-5-4-12-16-16-15-45 2-55 7-4 16-28 19-53 4-30 3-38-3-25-5 11-9 31-9 44-1 13-4 22-7 18-3-3-1-36 5-74 7-37 14-81 16-98 2-16 9-54 14-84 15-75 12-96-5-36-15 53-69 313-79 380-3 22-8 111-11 198-4 124-2 157 8 157 9 0 9 3-2 10-8 5-10 10-5 10 6 0 10 48 11 123 0 67 3 140 6 162 4 22 12 78 18 125 16 116 71 334 119 466 56 155 65 176 69 165 2-5-2-19-8-31zm-150-725c-6-30-8-33-9-13-1 25 8 62 14 56 2-2-1-21-5-43zm-13-317c-3-8-6-5-6 6-1 11 2 17 5 13 3-3 4-12 1-19zm7-50c-3-45-3-43-15-31s-4 63 9 63c5 0 7-15 6-32zm8-95c2-29 0-53-4-53-5 0-8 21-8 48 0 34-3 43-10 32-8-12-10-11-10 6 0 11 6 21 14 21 10 0 15-16 18-54zm6-88c-3-3-9 2-12 12-6 14-5 15 5 6 7-7 10-15 7-18zm26-220c4-22 9-49 12-60 4-18 4-18-6-3-6 10-14 40-17 67-4 36-9 48-19 44-10-3-14 2-13 18 0 23 1 23 9 4 7-17 9-14 10 15l2 35 8-40c4-22 11-58 14-80zm59-542c6-28 25-71 35-77 5-3 8-18 6-33-2-16-1-22 2-16 3 7 41-58 85-144s83-161 88-167c23-29 81-146 72-146-14 0-107 155-165 275-26 55-52 107-57 115-14 22-51 101-54 114-1 6-7 22-13 36-16 38-14 8 3-40 8-24 13-45 11-47-7-7-30 70-31 107-1 19-5 49-9 65l-7 30 15-27c9-15 17-35 19-45zm-23-3c0-5-2-10-4-10-3 0-8 5-11 10-3 6-1 10 4 10 6 0 11-4 11-10zm5063-624c-10-13-20-22-22-20-4 4 29 44 36 44 2 0-4-11-14-24zm-339-218c-147-187-426-432-650-570-278-172-659-331-846-353-24-3-54-7-68-10-14-2-45-7-70-10s-58-16-74-27c-20-14-31-18-34-10-2 7-7 10-10 8-7-4-60-12-152-22-149-17-430 2-430 28 0 6 7 7 16 4 19-7 327-9 364-2 14 2 57 7 95 11 212 20 679 147 915 250 209 91 416 238 755 535 67 59 235 233 235 243 0 6 3 8 6 4 3-3-20-39-52-79zm159-5c-32-43-86-99-123-128-13-11 14 21 60 72 47 51 86 92 88 93 2 0-10-17-25-37zm-249-174c-16-17-47-44-69-61-23-17-13-4 25 31 69 65 93 81 44 30zm-184-372c-48-44-220-164-220-152 0 2 39 32 88 66 48 35 107 80 132 101 65 54 64 46 0-15zm-3195-28c8-13-41 12-70 36-14 11-7 10 22-4 23-12 45-26 48-32zm3145 37c0-2-8-10-17-17-16-13-17-12-4 4s21 21 21 13zm-40-30c0-2-21-19-47-38-409-294-753-442-1188-512-16-3-66-8-110-11-44-4-83-9-87-11-38-24-456-20-480 4-4 4 79 7 184 7 216-1 330 8 518 40 155 27 196 38 193 52-1 6 15 13 37 17 61 10 265 73 370 116 181 73 357 167 525 283 85 59 85 59 85 53zm-210-185c0-12-99-75-107-67-4 3-2 6 4 6s30 16 54 35c49 39 49 39 49 26zm-2364-119c-5-4-66 26-66 33 0 3 16-3 35-12s33-18 31-21zm1571-58c-3-3-12-4-19-1-8 3-5 6 6 6 11 1 17-2 13-5zm-38-8c-21-20-357-89-489-101-67-6-219-6-280 0-19 2-45 4-57 4-13 1-23 4-23 9 0 4 73 7 163 7 173 0 268 7 400 30 45 7 98 16 117 20 19 3 60 12 90 19 56 15 87 19 79 12zm-864-86c3-5 1-10-4-10-6 0-11 5-11 10 0 6 2 10 4 10 3 0 8-4 11-10zm-158-26c-3-3-12-4-19-1-8 3-5 6 6 6 11 1 17-2 13-5zm193-31c8-8-90 1-102 9-8 5 11 6 42 2 30-3 57-8 60-11zm-333-9c-3-3-12-4-19-1-8 3-5 6 6 6 11 1 17-2 13-5zm452 2c-9-10-59-14-54-5 4 5 18 9 32 9 15 0 24-2 22-4zm-101-19c6 0 12-4 12-9 0-4-10-6-22-4-13 3-47 5-75 5-32 1-53 5-53 12 0 8 18 9 63 4 34-4 68-8 75-8z"/><path d="m850 5017-34-42 42 40c23 21 42 40 42 42 0 12-20-5-50-40z"/><path d="m366 4074c-4-9-4-19-1-22 2-3 7 3 11 12s4 19 1 22c-2 3-7-3-11-12z"/><path d="m190 3029c0-50 4-79 9-71 8 13 3 142-5 151-2 2-4-34-4-80z"/><path d="m214 2770c3-19 7-46 10-60s9-40 12-58 10-35 15-38 7 1 5 8c-3 7-7 33-10 58s-12 63-21 85l-15 40z"/><path d="m616 1583c111-173 198-286 286-376l90-92-79 95c-43 52-138 177-211 278-73 100-135 182-138 182-2 0 21-39 52-87z"/><path d="m1045 1060c77-95 280-255 468-369 64-39 41-16-40 40-106 72-299 219-348 264-22 21-53 49-70 64-29 25-29 25-10 1z"/><path d="m82 3020c0-14 2-19 5-12 2 6 2 18 0 25-3 6-5 1-5-13z"/><path d="m685 4919c-4-6-5-12-2-15 2-3 7 2 10 11 7 17 1 20-8 4z"/><path d="m4617 4724c-3-3-58-7-123-8-230-7-289-22-426-109-122-78-213-164-353-331-118-143-172-191-248-225l-62-28 85 4c147 7 214 39 330 158 94 97 140 129 425 302 274 166 305 184 370 207 64 24 74 33 36 34-16 0-31-2-34-4z"/><path d="m3102 4627c3-5 2-21-2-37-6-21-3-39 9-64 11-21 19-60 20-101 2-65 1-67-46-124-26-32-88-91-136-132-87-73-119-109-97-109 6 0 8-4 5-10-11-18 1-11 36 20 44 38 83 57 138 65 174 26 285 146 247 270-12 41-85 142-137 190-24 22-41 36-37 32z"/><path d="m5611 1893c-24-49-37-91-23-78 12 11 54 115 47 115-3 0-13-17-24-37z"/><path d="m196 1757c3-10 9-15 12-12s0 11-7 18c-10 9-11 8-5-6z"/><path d="m245 1648c19-45 42-89 51-98 15-14 15-13 1 10-9 14-28 55-42 93-15 37-31 70-36 73s7-32 26-78z"/><path d="m5399 1243c-61-70-72-88-30-48 37 35 68 75 58 75-2 0-14-12-28-27z"/><path d="m5235 1034c-15-19-25-37-24-39 2-2 17 14 32 36 35 49 29 52-8 3z"/><path d="m5005 780c-21-22-34-40-29-40 10 0 34 24 63 63 23 29 7 19-34-23z"/><path d="m4745 558c-38-27-134-90-212-140-79-49-143-92-143-95 0-6 57 27 182 104 89 55 248 169 248 178 0 7 3 9-75-47z"/><path d="m1950 280c41-23 183-70 208-69 9 0-39 20-108 44-69 25-127 45-130 44-3 0 11-9 30-19z"/><path d="m3765 134c-33-14-48-22-34-20 31 7 99 34 99 41 0 6 6 8-65-21z"/></g></svg>