<svg height="8" viewBox="0 0 178 8" width="178" xmlns="http://www.w3.org/2000/svg"><path d="m25.2899462 1.04378936c3.6370173.05451661 7.0932752.16325273 9.9493296.34447097 1.318424.00303269 2.5890455.03184326 3.6430137.09856247.0185042.00151635.0400924.00151635.0585966.00151635-.2767919-.03032691-.5343087-.05913748-.8118716-.0894644.9861195.02274519 1.511176.09704613 2.4109426.12737304-.1033151-.04094133-.2289895-.08188267-.3323045-.12130765 4.8650616.07581728 10.1248794.04094133 14.6291091.21835378.181187.00303269.3500377.00606538.5188885.01061442 1.9398566-.08491536 3.9005304-.16831438 6.2012188-.1789288-.7779472-.01516345-1.5389323-.02577787-2.3176506-.04094133 1.6692327-.05155576 3.3261293-.08794805 5.1125553-.08188267 4.8388473.01213077 10.2544087.20167398 12.8126139.52162293 9.3777724-.03790864 18.7686521-.06823556 28.1263784-.14708553.483422-.00606539.916729.01971249 1.002311.05610479.050115.0363923-.269082.07126825-.752504.07733363-6.7108556.1258567-13.5196288.19257591-20.3415092.25019705 5.7016055.06217017 11.4317383.122824 17.2744382.13647111.744794-.00606538 1.493443-.01213076 2.243634-.0166798.742481-.00606538 1.478023.00454904 2.212022.01971249 7.46413.00151635 14.548154.02122884 22.16263-.06823556 6.504225-.08036632 12.194266-.16376533 18.670734-.27597492 9.094813-.16073265 17.380838-.32146529 26.36848-.32146529 1.195063-.01213077 2.302231.05610479 2.442554.14860188.144179.09249709-.723206.17741245-1.921352.18954321-18.74398.28810569-37.144861.63534887-56.740805.58985849-2.113334-.00454903-4.193514-.01061442-6.261358-.0166798.026986.01213077.051658.02577788.051658.03790864 0 .05003941-.196607.09704613-.52737.13647112 2.349262.01364711 4.716257.03335961 7.091734.05913748 6.605227-.10462785 13.218935-.2122884 20.261323-.15769995 4.835764.03942499 9.212777.15011822 13.686167.25019704 5.66691-.05762113 11.317629-.13040573 17.042364-.18044514.228219-.00758173.46646.00303269.548187.02122884s-.040863.03487595-.272166.04245768c-3.935996.11524228-7.96914.20167398-12.040063.27900762.641478.05913748 1.023899.13343842.972241.21532109-.050116.08643171-.548187.16224899-1.308401.21683744.922126.00151634 1.845023.00303269 2.767919.00606538.570546.00303269 1.019273.0363923 1.003082.07884998-.012336.04549037-.46646.07733363-1.008479.07733363-3.765604-.00454903-7.523497-.01213076-11.281391-.01971249-4.511169.04852306-9.006147.08794805-13.525797.12130766.626059.05610479 1.087893.12585669 1.30763.20470667.000771 0 .000771.00151635.000771.00151635.700076-.00151635 1.397838-.00454904 2.092516-.00606539 12.767125-.23958262 25.836484-.3715047 39.012243-.32449798.258288 0 .471086.01516345.475712.03487595.004626.01971249-.195065.0363923-.427138.03487595-3.977632-.01364711-7.944469-.01213077-11.898199.00454904h.016192c.160369.01213076.189668.03487595.014649.04852306-.151889.01213077-.463376.01213077-.619891.00151635-.1835-.01364712-.166538-.0363923-.016962-.04852307-7.366212.03335961-14.681538.11372593-21.898945.23351725 6.707-.0197125 13.414771-.03184327 20.112519.00606538.730916-.02426153 1.458748-.04852307 2.200457-.0727846.202005-.00303269.46646.00758173.547416.02577788.056284.0166798-.09175.0363923-.29838.04094134-.20663.00454903-.410176.01213076-.615264.01819614 1.268308.00758173 2.245946.0894644 2.2259.19105957-.070162.10311151-1.160367.18347783-2.477249.18044514-3.527363.01971249-7.04316.03032691-10.558186.03487595-.380107.00606538-.760214.01213077-1.140321.01819615-.383962.0166798-.764069.03184326-1.145718.04852306 5.466448.04094134 10.922101.0894644 16.346144.1425365.464918-.00151635.861987.02729422.87201.06368652.011565.0363923-.366229.06671921-.83346.06823556-9.556646.14556919-19.231257.24261532-28.948273.30933453-3.18966.15618361-6.388573.31388356-9.646854.46855083.410176.00303269.82575.00454904 1.240552.00454904 10.563583 0 19.527324-.4442893 29.754748-.53527005.255975-.00454903.468773.01061442.501926.02881057.027756.01819615-.14572.0363923-.40555.0363923-4.992278.06065383-9.547394.21380475-14.49958.31994895-4.101763.0894644-8.003065.17134707-11.814929.28810569 7.794121-.04245768 15.268275-.23503359 22.989922-.3214653.33693-.00909807.676174 0 .891285.0197125.018504-.01061442.087124-.0197125.190439-.02577788.964531-.05003941 2.016957-.08491536 3.092514-.11524228.205859-.00909807.465689 0 .574401.0197125.10717.01516346-.018504.0333596-.247494.04397402-1.051655.02729423-2.05011.05913749-2.939854.11069324-.166538.00758173-.353122.00606539-.493445-.00151634.061681.03184326-.138782.05913748-.518118.07126825-7.471069.25626243-15.505745.35785759-23.418602.4943287-.052429.02426154-.158057.04852307-.334618.07126825-.547415.07733364-1.646102.11827497-2.786423.10311151l-.861216-.01819614c-3.474934-.04549038-6.942158-.08036633-10.397817-.12737305-.707014.03487596-1.527367.05762114-2.420194.06520287-2.988428.09552978-5.986879.18499418-9.050865.25474608.192752.02122884.309174.04700672.307632.07430094-.059368.06671922-.769466.11675862-1.597529.11372593-.417886.00151635-.835002.00303269-1.252117.00454904 1.198918.01516346 2.399377.03184326 3.59444.05155576.172706 0 .332304.00454903.477254.01061442 1.314569.00303269 2.642245.00151634 3.993051-.00454904 11.787173-.05913749 22.870416-.31085088 33.867306-.59895657.180416-.01061442.462604-.00909807.622974.00606539.10717.0166798.087895.03790864-.113338.04700672-6.932135.33207971-12.929036.76878728-20.766334.98714107-9.327657.25929512-18.53735.4776489-28.0978513.64596328-9.9968921 0-19.2459062.1592163-29.4417183.27749127-13.7725191.16224899-26.7817401.18802687-40.2566501.20319032-5.0485615.0530721-9.6738396-.22290282-10.3276545-.61260367-.380107-.23654994.7617561-.4609691 2.8380811-.61260368-.4140314 0-.8218947-.00303269-1.2328421-.00454903l-1.9514217-.04700672c-1.8465646-.04700672-3.4217343-.14405285-4.4155638-.27597492l-1.3669975-.16528169c-1.8172663-.31085087-4.76174654-.57166234-6.24902131-.89767667l.33384654-.12130766-.35157973-.0363923c-1.16113832-.0894644-1.94371162-.20773936-2.21356448-.33207971l.11179619-.14860188c.24363858-.16983073.82497875-.33056337 1.75712763-.4806816-.03315335-.06217018.07941385-.12434035.32151041-.18196149-.79490943-.15163457-1.17193243-.31236722-.54201874-.48826332-.47879608-.04397403-.39938224-.10766055.1703928-.14556919.19660709-.01213077.43407761-.0197125.67540317-.02274519-.00385504 0-.00616807 0-.00616807 0-.26214278-.03942499-.3400146-.05155575-.69467837-.09401343-.47571204-.01364712-.75096196-.02274519-.75096196-.02274519-1.26599543-.02577788-1.26599543-.02577788-2.36082705-.05155576-.94448501-.05155575-1.52659619-.12434035-1.52659619-.12434035-1.04394507-.26687684-1.04394507-.26687684-.88280436-.38060277.06168065-.01213077.12952937-.02274519.20277515-.03184326-.83577287-.03942499-.89436949-.04245768-1.11950388-.0530721-.2359285-.02122884-.39784022-.04549038-.39784022-.04549038-.03546637-.06065383-.03546637-.06065383-.1796449-.08339901-.04548949-.02274519-.03469537-.04700672-.03469537-.04700672.46723096-.06671921.46723096-.06671921.47956709-.08643171.11025417-.01819614.26214278-.03487595.26214278-.03487595.54664479-.01971249.7640691-.02881057.85581907-.03184326 1.17193244.1592163 1.17578748.16073265 1.17578748.16073265l.2552037-.05610479.2729369.07430094-.15420164-.06823556.59290529.04094134-.67694518-.05913749c1.40246388.02426153 1.40246388.02426153 1.96375783.02274519.58365319.00758173 1.08326649-.00758173 1.14263412-.00909808-.04857351-.02122884-.05165754-.03639229-.05165754-.03639229 1.49883989.02577787 1.49883989.02577787 2.9606714.05458844.13569744.01516346.24286758.03032692.34309864.04397403.14032349-.01819615.42019946-.02881057.7085565-.02274519.2567457.00303269.5119494.00758173.7671532.01061442.0578256-.00303269.1125671-.00606538.1642247-.00758173 0-.00303269-.001542-.00606538-.001542-.00606538.2606007-.01213076.4410167-.02122884.6476468-.03184326.1295294-.00758173.1333845-.00758173.1333845-.00758173.000771 0 .005397.00151635.00771.00151635.4456428-.02122884 1.0917476-.0530721 2.8018438-.13647112.4533528.00758173.8758653.0197125 1.2744765.03184326-.1287584-.00909807-.2513487-.01971249-.371626-.03032691-.2382415-.02122884-.0200462-.08036633-.1503466-.08643171-1.1102183-.04310176-2.2549007-.07763981-3.4200131-.10708799.2614624.02192352.3525294.05972199.2120106.09329392-.1971039.042-.6529542.058-1.0266145.038-2.36524648-.096-4.88726288-.15-7.27838405-.242.15600886.018.31277874.034.4687876.052l-1.03726866-.088c-.69252714-.072-.75416966-.186-.12024098-.262l2.33784985-.148c.0157737-.00061112.03152848-.00122497.04726458-.00184154.83965991.05758197 1.71598456.09988133 2.61390575.12869125-.64347603.01852072-1.2782616.03961278-1.90237576.06337669l-.3478444-.0582264.03231541.0705052c-.33836884.01345401-.67346424.02770772-1.00496488.04277745-.63299772.00758173-1.07324339.05155575-.99305853.10007882.09097896.04700672.6700061.08188267 1.28681265.07581728.33277661.00630854.66602236.01250351.99943209.01866046-.58720637.05269405-1.37045718.08215741-2.21319057.07616079-1.68413468-.012-2.95199205-.164-2.82414088-.336-.09132226-.12-.46193843-.25-.03881196-.352.39191903-.09295292.93255754-.16618561 1.57341429-.22252253-1.64575499-.23906466-1.74345677-.56710852-.01670055-.8218685 2.20114726-.324 6.56878409-.406 9.7534391-.18-.1085941-.032-.2479949-.062-.3558188-.094 1.0312583.004 1.9439103.046 2.8696552.088-.6169065-.05-1.2607691-.1-1.8776756-.15 3.203139.134 6.1066818.316 8.4841981.578.2657088.03.6939236.044 1.0605247.064 1.6658788.016 2.881978.166 2.7287141.338-.020533.02210858-.0632233.04343915-.125594.06378936zm-5.1380015.37614853c-.843264.05942572-1.7381899.11260317-2.6665514.15736336 3.4977933.01591813 6.9833236.0873349 10.1887503.20065993 1.885115.03032692 3.7810241.0561048 5.6831013.08188267-.09175-.01061442-.182729-.01971249-.2721659-.03032691.4926742.0166798.9845774.03032691 1.4757097.04549037.0531995.00151635.1063991.00303269.1588276.00303269-.3731679-.03639229-.7455649-.07278459-1.1164198-.10766054-.2567457-.01213077-.5134915-.02274519-.7740922-.03184326-4.4101668-.04549038-8.4109282-.21228841-12.6707484-.31843261-.0021374-.00005519-.0042744-.00011043-.0064112-.0001657zm-18.53970128.59655717c-.03837925-.00525034-.0772414-.01070144-.1164451-.01649506 0 0 .05704876.00416065.15485922.011257.02166657-.00296702.04581461-.00629947.0727345-.01007093.53300983-.008.89202057.026 1.26571479.056.03156945.058-.23787215.096-.76280607.046-.26650491-.026-.53300982-.05-.73050244-.07.02219412-.00394305.05802246-.00874987.1164451-.01669101zm105.98679458-.92449506c-.235256-.004-.411891-.026-.399549-.05.034709-.024.242197-.042.495194-.042 7.497329.086 14.990031.144 22.521299.19.232942 0 .428859.024.416518.046-.012341.024-.224457.044-.476682.042-7.527411-.042-15.057137-.1-22.55678-.186zm56.090046 1.92154141c.171308-.016.496262-.02.70819 0 .181021.014.188085.046.015894.062-.202214.02-.527169.018-.70819.002-.21281-.018-.219874-.044-.015894-.064z" fill-opacity=".1" fill-rule="evenodd"/></svg>